<svg xmlns="http://www.w3.org/2000/svg" viewBox="0 0 489.8 367.38664">
    <g fill="#404040">
        <path d="M359.1 100.487v-88.3c0-4.6-2.5-8.7-6.6-10.8-4-2.1-8.9-1.8-12.7.8-87.8 60.7-138.2 68.5-172.3 68.5H70c-38.6 0-70 31.4-70 70v26c0 38.6 31.4 70 70 70h46.8l50.8 123.1c1.9 4.7 6.5 7.6 11.3 7.6 1.6 0 3.1-.3 4.7-.9 6.3-2.6 9.2-9.7 6.7-16l-47-113.8h24.1c118.8 0 167.4 62.9 169.6 65.8 2.4 3.2 6 5 9.8 5 1.3 0 2.6-.2 3.8-.6 5-1.7 8.4-6.3 8.4-11.6v-88.2c24.3-5.6 42.4-27.3 42.4-53.3.2-26-18-47.8-42.3-53.3zm-334.6 66.2v-26c0-25.1 20.4-45.5 45.5-45.5h42.8v117H70c-25.1 0-45.5-20.4-45.5-45.5zm310.1 99.1c-27.2-22.4-80.6-53.6-167.2-53.6h-30.2v-117h30.2c35 0 85.2-7.2 167.2-60v230.6zm24.5-84.5v-55.1c10.6 4.7 17.9 15.3 17.9 27.6.1 12.2-7.3 22.8-17.9 27.5zM477.5 141.487h-47.9c-6.8 0-12.3 5.5-12.3 12.3 0 6.8 5.5 12.3 12.3 12.3h47.9c6.8 0 12.3-5.5 12.3-12.3 0-6.9-5.5-12.3-12.3-12.3zM412.6 115.687c1.9 4.8 6.5 7.8 11.4 7.8 1.5 0 3-.3 4.5-.8l46.4-18.2c6.3-2.5 9.4-9.6 6.9-15.9-2.5-6.3-9.6-9.4-15.9-6.9l-46.4 18.2c-6.2 2.4-9.3 9.5-6.9 15.8zM474.9 202.887l-46.4-18.2c-6.3-2.5-13.4.6-15.9 6.9-2.5 6.3.6 13.4 6.9 15.9l46.4 18.2c1.5.6 3 .8 4.5.8 4.9 0 9.5-3 11.4-7.8 2.5-6.2-.6-13.3-6.9-15.8z"/>
    </g>
</svg>