<svg xmlns="http://www.w3.org/2000/svg" viewBox="0 0 489.99997 118.99999">
    <g fill="#404040">
        <path d="M304.5 59.5C304.5 26.7 277.8 0 245 0s-59.5 26.7-59.5 59.5S212.2 119 245 119s59.5-26.7 59.5-59.5zm-59.5 35c-19.3 0-35-15.7-35-35s15.7-35 35-35 35 15.7 35 35-15.7 35-35 35zM59.5 0C26.7 0 0 26.7 0 59.5S26.7 119 59.5 119 119 92.3 119 59.5 92.3 0 59.5 0zm0 94.5c-19.3 0-35-15.7-35-35s15.7-35 35-35 35 15.7 35 35-15.7 35-35 35zM430.5 0C397.7 0 371 26.7 371 59.5s26.7 59.5 59.5 59.5S490 92.3 490 59.5 463.3 0 430.5 0zm0 94.5c-19.3 0-35-15.7-35-35s15.7-35 35-35 35 15.7 35 35-15.7 35-35 35z"/>
    </g>
</svg>