<svg xmlns="http://www.w3.org/2000/svg" viewBox="0 0 489.5 472.20001">
    <g fill="#404040">
        <path d="M12.3 384.3h158.1l62.7 83c2.3 3 5.8 4.8 9.6 4.9h.2c3.7 0 7.2-1.7 9.5-4.6l67.2-83.3h157.6c6.8 0 12.3-5.5 12.3-12.3V12.3C489.5 5.5 484 0 477.2 0H12.3C5.5 0 0 5.5 0 12.3V372c0 6.8 5.5 12.3 12.3 12.3zM24.5 24.6h440.4v335.2H313.7c-3.7 0-7.2 1.7-9.5 4.6l-61 75.7-56.9-75.4c-2.3-3.1-5.9-4.9-9.8-4.9h-152V24.6z"/>
        <path d="M78.3 104h332.8c6.8 0 12.3-5.5 12.3-12.3 0-6.8-5.5-12.3-12.3-12.3H78.3c-6.8 0-12.3 5.5-12.3 12.3 0 6.8 5.5 12.3 12.3 12.3zM78.3 170.9h332.8c6.8 0 12.3-5.5 12.3-12.3 0-6.8-5.5-12.3-12.3-12.3H78.3c-6.8 0-12.3 5.5-12.3 12.3 0 6.8 5.5 12.3 12.3 12.3zM78.3 237.9h332.8c6.8 0 12.3-5.5 12.3-12.3 0-6.8-5.5-12.3-12.3-12.3H78.3c-6.8 0-12.3 5.5-12.3 12.3 0 6.8 5.5 12.3 12.3 12.3zM257 292.6c0-6.8-5.5-12.3-12.3-12.3H78.3c-6.8 0-12.3 5.5-12.3 12.3 0 6.8 5.5 12.3 12.3 12.3h166.4c6.8-.1 12.3-5.6 12.3-12.3z"/>
    </g>
</svg>