<svg xmlns="http://www.w3.org/2000/svg" viewBox="0 0 359.69999 489.19997">
    <g fill="#404040">
        <path d="M104.4 0C69.8 0 41.7 28.1 41.7 62.7s28.1 62.7 62.7 62.7 62.7-28.1 62.7-62.7S139 0 104.4 0zm0 100.9c-21.1 0-38.2-17.1-38.2-38.2s17.1-38.2 38.2-38.2 38.2 17.1 38.2 38.2-17.1 38.2-38.2 38.2zM249 125.4c34.6 0 62.7-28.1 62.7-62.7S283.6 0 249 0s-62.7 28.1-62.7 62.7 28.1 62.7 62.7 62.7zm0-100.9c21.1 0 38.2 17.1 38.2 38.2s-17.1 38.2-38.2 38.2-38.2-17.1-38.2-38.2S228 24.5 249 24.5zM0 200.6v79.7c0 23 12.9 44 32.8 54.7v104.7c0 27.3 22.2 49.5 49.5 49.5h56.6c6.8 0 12.3-5.5 12.3-12.3 0-6.8-5.5-12.3-12.3-12.3H82.3c-13.8 0-25-11.2-25-25V327.2c0-5.1-3.2-9.7-8-11.5-14.8-5.4-24.7-19.6-24.7-35.3v-79.8c0-20.8 16.9-37.7 37.7-37.7h53.5c6.8 0 12.3-5.5 12.3-12.3 0-6.8-5.5-12.3-12.3-12.3H62.3C27.9 138.5 0 166.4 0 200.6zM138.5 200.6v79.7c0 23 12.9 44 32.8 54.7v104.7c0 27.3 22.2 49.5 49.5 49.5h56.6c27.3 0 49.5-22.2 49.5-49.5V335c19.9-10.7 32.8-31.7 32.8-54.7v-79.7c0-34.3-27.9-62.2-62.2-62.2h-96.8c-34.4.1-62.2 28-62.2 62.2zm24.5 0c0-20.8 16.9-37.7 37.7-37.7h96.8c20.8 0 37.7 16.9 37.7 37.7v79.7c0 15.7-9.9 29.9-24.7 35.3-4.8 1.8-8 6.4-8 11.5v112.6c0 13.8-11.2 25-25 25h-56.6c-13.8 0-25-11.2-25-25V327.2c0-5.1-3.2-9.7-8-11.5-14.8-5.4-24.7-19.6-24.7-35.3v-79.8h-.2z"/>
    </g>
</svg>