<svg xmlns="http://www.w3.org/2000/svg" height="22" width="26" viewBox="0 0 433.23001 512">
    <path fill="#404040" d="M293.802 237.405c32.76-23.893 54.095-62.56 54.095-106.123C347.897 58.892 289.004 0 216.615 0 144.225 0 85.333 58.893 85.333 131.282c0 43.562 21.333 82.23 54.095 106.123C57.988 268.57 0 347.53 0 439.795 0 479.61 32.39 512 72.205 512h288.82c39.814 0 72.205-32.39 72.205-72.205 0-92.264-57.988-171.225-139.428-202.39zM124.718 131.282c0-50.672 41.225-91.897 91.897-91.897 50.672 0 91.897 41.225 91.897 91.897 0 50.672-41.225 91.898-91.897 91.898-50.672 0-91.897-41.226-91.897-91.898zm236.307 341.333H72.205c-18.097 0-32.82-14.723-32.82-32.82 0-97.727 79.504-177.232 177.23-177.232 97.728 0 177.232 79.504 177.232 177.23 0 18.1-14.724 32.822-32.822 32.822z"/>
</svg>