<svg xmlns="http://www.w3.org/2000/svg" width="20" height="20" viewBox="0 0 348.33247 348.33124">
	<path fill="#e01f63" d="M336.56 68.61L231.015 174.162l105.543 105.55c15.698 15.704 15.698 41.144 0 56.85-7.845 7.843-18.13 11.768-28.408 11.768-10.296 0-20.58-3.918-28.42-11.768l-105.565-105.56L68.61 336.56c-7.844 7.843-18.13 11.768-28.417 11.768-10.285 0-20.563-3.92-28.413-11.77-15.7-15.697-15.7-41.138 0-56.85l105.54-105.548L11.774 68.61c-15.7-15.7-15.7-41.146 0-56.845 15.696-15.687 41.127-15.687 56.83 0L174.165 117.32 279.72 11.764c15.706-15.687 41.14-15.687 56.833 0 15.705 15.7 15.705 41.145.006 56.844z"/>
</svg>