<svg xmlns="http://www.w3.org/2000/svg" viewBox="0 0 462.088 462.088" width="26" height="24">
	<path d="M417.04 202.182c-7.482 0-13.895-5.345-16.033-12.827-18.172-80.17-88.723-136.826-172.1-136.826S74.976 109.183 56.804 189.354c-2.138 8.552-10.69 13.896-19.24 11.758s-13.897-10.69-11.76-19.24C47.186 86.734 131.633 20.46 228.906 20.46s181.722 66.276 203.1 161.412c2.14 8.552-3.206 17.103-11.757 19.24-1.07 0-2.138 1.07-3.207 1.07z" fill="#231F20"/>
	<path d="M422.386 206.458c-2.138 0-4.276 0-6.414-1.07l-55.585-23.516c-8.552-3.207-11.758-12.827-8.552-21.38s12.827-11.757 21.38-8.55l40.62 17.102 17.102-40.62c3.207-8.552 12.827-11.758 21.38-8.552s11.757 12.827 8.55 21.38l-23.516 55.584c-2.137 4.276-4.275 7.483-8.55 8.552-2.138 1.07-4.276 1.07-6.414 1.07zM232.113 441.627c-97.274 0-181.72-66.275-203.1-161.41-2.138-8.553 3.207-17.104 11.758-19.242s17.104 3.207 19.242 11.758c18.172 80.17 88.723 136.826 172.1 136.826s153.93-56.655 172.102-136.827c2.138-8.552 10.69-13.896 19.24-11.758s13.897 10.69 11.76 19.24c-21.38 95.137-104.758 161.412-203.1 161.412z" fill="#231F20"/>
	<path d="M16.185 343.284c-2.138 0-4.276 0-6.414-1.07-8.55-3.206-11.757-12.826-8.55-21.378l23.516-55.585c3.207-8.55 12.827-11.757 21.38-8.55l55.584 23.516c8.552 3.207 11.758 12.827 8.552 21.38-3.207 8.55-12.827 11.757-21.38 8.55l-40.62-17.102-17.102 39.55c-2.137 6.414-8.55 10.69-14.965 10.69z" fill="#231F20"/>
</svg>