<svg xmlns="http://www.w3.org/2000/svg" width="24" height="15" viewBox="0 0 512 320">
	<path d="M256 0C144.34 0 47.56 65.02 0 160c47.56 94.98 144.34 160 256 160 111.656 0 208.44-65.02 256-160C464.44 65.02 367.656 0 256 0zm126.225 84.852c30.082 19.187 55.572 44.887 74.72 75.148-19.147 30.26-44.64 55.96-74.72 75.148C344.428 259.258 300.78 272 256 272s-88.428-12.743-126.225-36.852C99.695 215.96 74.205 190.26 55.058 160c19.146-30.262 44.637-55.962 74.717-75.148 1.96-1.25 3.938-2.46 5.93-3.65C130.725 94.866 128 109.612 128 125c0 70.69 57.308 128 128 128 70.69 0 128-57.31 128-128 0-15.387-2.725-30.134-7.703-43.8 1.988 1.19 3.97 2.402 5.928 3.652zM256 109c0 26.51-21.49 48-48 48s-48-21.49-48-48 21.49-48 48-48 48 21.49 48 48z"/>
</svg>