<svg xmlns="http://www.w3.org/2000/svg" width="24" height="20" viewBox="0 0 442.53304 339.17801">
	<path fill="#8cc63f" d="M434.54 46.82L395.71 7.994C390.388 2.665 383.913 0 376.3 0c-7.617 0-14.092 2.665-19.416 7.993L169.59 195.57l-83.94-84.225c-5.33-5.33-11.8-7.992-19.41-7.992-7.617 0-14.088 2.662-19.418 7.992l-38.828 38.83C2.664 155.502 0 161.974 0 169.59c0 7.61 2.664 14.09 7.994 19.417l103.35 103.35 38.832 38.827c5.327 5.332 11.8 7.994 19.414 7.994 7.61 0 14.084-2.67 19.414-7.994l38.83-38.828L434.54 85.652c5.324-5.33 7.993-11.802 7.993-19.417.004-7.61-2.67-14.084-7.994-19.414z"/>
</svg>