<svg xmlns="http://www.w3.org/2000/svg" viewBox="0 0 45.999996 50" width="11" height="26">
	<path d="M35.162-25c6.696 0 10.043 4.567 10.043 9.79 0 6.52-5.814 12.554-13.39 12.554-6.345 0-10.046-3.752-9.87-9.947C21.945-17.823 26.35-25 35.162-25zM14.542 75C9.256 75 5.38 71.738 9.08 57.385l6.07-25.457c1.057-4.077 1.23-5.707 0-5.707-1.588 0-8.45 2.818-12.51 5.59L0 27.408C12.863 16.48 27.662 10.072 34.004 10.072c5.285 0 6.168 6.36 3.525 16.148l-6.95 26.76c-1.235 4.73-.704 6.36.526 6.36 1.586 0 6.787-1.964 11.896-6.042L46 57.378C33.488 70.1 19.83 75 14.543 75z" fill="#030104"/>
</svg>