<svg xmlns="http://www.w3.org/2000/svg" viewBox="0 0 512 367.30399" width="26" height="22">
	<path d="M461.913 0H50.087C21.237 0 0 23.76 0 50.087v267.13c0 27.618 22.47 50.087 50.087 50.087h411.826c27.618 0 50.087-22.47 50.087-50.087V50.087C512 23.334 490.385 0 461.913 0zM50.087 33.39h411.826c3.755 0 7.58 1.383 10.53 3.815l-204.65 204.65c-6.503 6.502-17.084 6.5-23.584 0L39.557 37.206c2.925-2.41 6.74-3.814 10.53-3.814zM478.61 317.218c0 9.206-7.49 16.696-16.697 16.696H50.087c-9.206 0-16.696-7.49-16.696-16.696V78.26l187.207 187.207c19.52 19.518 51.282 19.52 70.804 0L478.61 78.26v238.957z"/>
</svg>