<svg class="main-logo__svg" xmlns="http://www.w3.org/2000/svg" width="252" height="60" viewBox="0 0 20149 4894">
  <path fill="#08080A" d="M1312 2371c0-235-34-420-84-521-51-101-168-168-337-168-50 0-134 0-201 17-68 16-135 16-169 16v1834H0V1362c101-33 235-50 404-84 168-17 336-33 521-33 168 0 286 16 387 50 101 50 185 84 252 168 34-17 67-34 118-67 50-17 101-51 168-67 67-17 134-34 202-51 67-17 134-17 202-17 168 0 319 17 437 84 118 51 202 135 269 219s84 219 134 336c17 51 34 202 34 421v1295h-521V2405c0-236-34-421-84-521-51-101-169-169-337-169-84 0-168 17-235 51-84 17-135 50-168 84 16 67 33 151 50 235s17 169 17 269v1262h-538V2371zm1951 84c0-201 33-386 84-521 50-151 134-269 235-387 101-101 202-168 353-235 135-51 269-84 387-84 303 0 555 84 740 286 168 201 269 487 269 874v101c0 34 0 67-17 101H3801c17 185 84 319 202 420 117 101 269 152 487 152 135 0 236-17 353-34 101-17 185-50 253-67l67 437c-34 17-67 34-118 51-50 16-101 33-168 50s-134 17-202 34c-84 16-151 16-235 16-202 0-387-33-521-84-152-50-270-134-370-252-85-101-169-235-219-387-51-151-67-302-67-471zm1530-235c0-67-17-135-34-202-16-67-50-134-84-168-33-51-84-84-151-118-51-17-135-50-202-50s-151 17-219 50c-50 34-117 67-151 118-50 50-84 101-101 168s-33 135-50 202h992zm2624 1127c0 370-85 639-270 790-185 168-470 252-857 252-135 0-269-16-421-33-134-17-252-51-353-84l84-454c84 33 202 67 303 84 118 17 235 33 370 33 202 0 370-50 454-134s135-219 135-387v-84c-51 17-135 50-202 84-84 17-185 34-303 34-151 0-269-17-404-68-117-50-235-117-302-201-84-85-152-202-202-337-51-134-67-286-67-471 0-168 16-319 84-454 50-134 134-269 218-353 84-101 219-168 354-235 134-51 302-84 470-84 169 0 337 16 488 33s286 51 387 84l34 1985zm-1480-976c0 236 50 387 151 488 84 101 219 151 387 151 84 0 168-16 235-33s135-51 185-84V1715c-33-16-84-16-134-16-68-17-135-17-202-17-202 0-336 67-437 202-118 134-185 285-185 487zm2522-1126c168 0 320 16 438 67 117 50 218 101 285 185 68 84 135 168 152 286 33 117 50 235 50 370v1379c-84 17-202 33-370 67-168 17-353 34-555 34-134 0-269-17-387-34-117-17-201-67-285-135-85-50-135-134-185-235-51-101-68-202-68-353 0-135 17-236 84-337 51-84 118-168 202-218 84-51 185-84 303-135 118-17 235-33 353-33 51 0 118 0 185 16 67 17 135 17 202 34v-84c0-50-17-118-17-168 0-51-34-101-84-152-34-50-84-84-151-100-51-17-135-17-219-17-135 0-235 17-336 17-101 16-185 33-253 50l-67-420c67-17 168-51 286-68 151-16 286-16 437-16zm51 1967c168 0 286-17 370-17v-588c-34-17-68-17-135-17-50-17-118-17-185-17-50 0-118 0-168 17s-118 17-168 50c-51 17-84 51-118 101-34 51-50 84-50 168 0 135 33 202 117 270 84 0 185 33 337 33z"></path>
  <path fill="#fff" d="M10982 2371c0-235-34-420-84-521-51-101-168-168-337-168-50 0-134 0-201 17-68 16-135 16-169 16v1834h-521V1362c101-33 236-50 404-84 168-17 336-33 521-33 168 0 286 16 387 50 101 50 185 84 252 168 34-17 67-50 135-67 50-17 101-51 168-67 50-17 134-34 202-51 67-17 134-17 201-17 169 0 320 17 438 84 117 51 202 135 269 219s118 202 134 336c17 135 34 269 34 421v1295h-521V2405c0-236-34-421-84-521-51-101-169-169-337-169-84 0-168 17-235 51-84 17-135 50-168 84 16 67 33 151 50 235s17 169 17 269v1262h-521l-34-1245zm2674-1665c0 101-34 169-84 236-67 50-135 84-236 84-84 0-168-34-235-84-67-51-84-135-84-236s33-185 84-235c67-51 134-84 235-84 84 0 169 33 236 84 50 50 84 134 84 235zm-589 589h521v2287h-521zm2069 471c-51-17-51-17-135-34s-168-17-269-17c-50 0-118 17-185 17-67 17-117 17-134 34v1833h-522V1413c101-34 236-68 387-101 152-34 320-51 505-51 33 0 84 0 134 17 51 0 84 17 135 17 50 17 84 17 134 17 34 17 68 33 84 33l-134 421z"></path>
  <path fill="#404040" d="M17188 959c0-84-68-135-135-135-84 0-134 67-134 135 0 84 67 134 134 134 84 17 135-50 135-134z"></path>
  <path d="M17759 0c-1345 0-2438 1093-2438 2439 0 824 403 1547 1009 1984l639-639V1329c0-68-17-101-84-135-84-50-135-134-135-219 0-134 118-252 253-252 134 0 252 118 252 252 0 85-51 169-135 219-50 17-67 51-67 118v2522l-673 673c387 252 841 387 1329 387 1345 0 2438-1093 2438-2439C20198 1093 19105 0 17759 0zm-874 1547v2018h-118V1547h118zm454 2002h-118V1530h118v2019zm1480 0c-84 16-202 50-303 50-134 0-252-17-336-50-84-34-168-85-219-169-50-67-84-151-118-252-16-101-33-219-33-353V975l353-50v622h757v303h-757v925c0 101 17 185 17 252 17 67 33 118 67 152 34 33 67 67 118 84 50 16 101 16 168 16 101 0 202-16 269-33s118-51 135-51l67 303c-34 0-101 17-185 51z" class="fil0"></path>
</svg>