<svg xmlns="http://www.w3.org/2000/svg" viewBox="0 0 97.75 97.75">
  <path d="M39.97 59.587c7.333-3.803 14.603-7.57 21.94-11.376L39.97 36.765v22.823z"/>
  <path d="M48.875 0C21.883 0 0 21.882 0 48.875S21.883 97.75 48.875 97.75 97.75 75.868 97.75 48.875 75.867 0 48.875 0zm33.3 65.19c-.845 3.67-3.847 6.376-7.46 6.78-8.557.956-17.217.96-25.842.956-8.625.005-17.287 0-25.846-.957-3.613-.404-6.613-3.11-7.457-6.78-1.203-5.23-1.203-10.934-1.203-16.315s.014-11.088 1.217-16.314c.844-3.67 3.844-6.377 7.457-6.78 8.56-.957 17.222-.962 25.847-.957 8.623-.005 17.285 0 25.84.956 3.616.403 6.618 3.11 7.462 6.78 1.202 5.228 1.192 10.934 1.192 16.315s-.003 11.087-1.206 16.314z"/>
</svg>
